<svg xmlns="http://www.w3.org/2000/svg" xmlns:xlink="http://www.w3.org/1999/xlink" width="139" zoomAndPan="magnify" viewBox="0 0 104.25 30.000001" height="40" preserveAspectRatio="xMidYMid meet" version="1.0"><defs><g/><clipPath id="db82179964"><path d="M 4.222656 4.140625 L 16 4.140625 L 16 11 L 4.222656 11 Z M 4.222656 4.140625 " clip-rule="nonzero"/></clipPath><clipPath id="e13138cbee"><path d="M 14 4.140625 L 31.078125 4.140625 L 31.078125 25.914062 L 14 25.914062 Z M 14 4.140625 " clip-rule="nonzero"/></clipPath></defs><g clip-path="url(#db82179964)"><path fill="#1893d0" d="M 15.648438 4.1875 C 14.800781 4.820312 14.136719 5.609375 13.664062 6.558594 C 13.1875 7.503906 12.953125 8.507812 12.953125 9.570312 L 12.953125 10.921875 L 4.222656 10.921875 C 4.222656 10.480469 4.265625 10.042969 4.351562 9.609375 C 4.4375 9.175781 4.566406 8.753906 4.734375 8.34375 C 4.902344 7.9375 5.109375 7.546875 5.355469 7.179688 C 5.601562 6.8125 5.882812 6.472656 6.195312 6.160156 C 6.507812 5.847656 6.847656 5.566406 7.214844 5.320312 C 7.582031 5.074219 7.972656 4.867188 8.378906 4.699219 C 8.789062 4.53125 9.210938 4.402344 9.644531 4.316406 C 10.078125 4.230469 10.515625 4.1875 10.957031 4.1875 Z M 15.648438 4.1875 " fill-opacity="1" fill-rule="evenodd"/></g><g clip-path="url(#e13138cbee)"><path fill="#004aad" d="M 31.089844 4.1875 C 31.089844 4.605469 31.050781 5.023438 30.972656 5.4375 C 30.894531 5.847656 30.777344 6.25 30.625 6.640625 C 30.472656 7.03125 30.285156 7.40625 30.0625 7.761719 C 29.839844 8.117188 29.585938 8.449219 29.300781 8.757812 C 29.015625 9.066406 28.703125 9.347656 28.367188 9.597656 C 28.027344 9.847656 27.671875 10.0625 27.292969 10.246094 C 26.914062 10.429688 26.523438 10.578125 26.117188 10.6875 C 25.714844 10.796875 25.300781 10.867188 24.882812 10.902344 C 24.707031 10.914062 24.53125 10.921875 24.351562 10.921875 L 21.925781 10.921875 C 21.675781 10.921875 21.464844 11.011719 21.289062 11.1875 C 21.109375 11.363281 21.023438 11.574219 21.023438 11.824219 L 21.023438 25.554688 C 20.582031 25.554688 20.144531 25.511719 19.710938 25.425781 C 19.273438 25.339844 18.855469 25.210938 18.445312 25.042969 C 18.035156 24.875 17.648438 24.667969 17.28125 24.421875 C 16.914062 24.175781 16.574219 23.894531 16.261719 23.582031 C 15.949219 23.269531 15.667969 22.929688 15.421875 22.5625 C 15.175781 22.195312 14.96875 21.804688 14.800781 21.398438 C 14.632812 20.988281 14.503906 20.566406 14.417969 20.132812 C 14.332031 19.699219 14.289062 19.261719 14.289062 18.820312 L 14.289062 9.566406 C 14.289062 9.214844 14.320312 8.863281 14.390625 8.519531 C 14.460938 8.171875 14.5625 7.835938 14.699219 7.507812 C 14.832031 7.183594 15 6.871094 15.195312 6.578125 C 15.390625 6.285156 15.613281 6.011719 15.863281 5.761719 C 16.113281 5.511719 16.386719 5.289062 16.679688 5.09375 C 16.972656 4.898438 17.28125 4.730469 17.609375 4.597656 C 17.9375 4.460938 18.273438 4.359375 18.617188 4.289062 C 18.964844 4.222656 19.316406 4.1875 19.667969 4.1875 Z M 31.089844 4.1875 " fill-opacity="1" fill-rule="evenodd"/></g><g fill="#1893d0" fill-opacity="1"><g transform="translate(35.348641, 12.207407)"><g><path d="M 2.4375 -6.078125 L 0.046875 -6.078125 L 0.046875 -7.484375 L 6.5625 -7.484375 L 6.5625 -6.078125 L 4.171875 -6.078125 L 4.171875 0 L 2.4375 0 Z M 2.4375 -6.078125 "/></g></g></g><g fill="#1893d0" fill-opacity="1"><g transform="translate(41.953139, 12.207407)"><g><path d="M 5.65625 0 L 4.203125 -2.078125 L 2.625 -2.078125 L 2.625 0 L 0.890625 0 L 0.890625 -7.484375 L 4.125 -7.484375 C 4.789062 -7.484375 5.363281 -7.367188 5.84375 -7.140625 C 6.332031 -6.921875 6.707031 -6.609375 6.96875 -6.203125 C 7.238281 -5.796875 7.375 -5.316406 7.375 -4.765625 C 7.375 -4.210938 7.238281 -3.734375 6.96875 -3.328125 C 6.707031 -2.921875 6.328125 -2.613281 5.828125 -2.40625 L 7.515625 0 Z M 5.625 -4.765625 C 5.625 -5.179688 5.488281 -5.503906 5.21875 -5.734375 C 4.945312 -5.960938 4.550781 -6.078125 4.03125 -6.078125 L 2.625 -6.078125 L 2.625 -3.46875 L 4.03125 -3.46875 C 4.550781 -3.46875 4.945312 -3.578125 5.21875 -3.796875 C 5.488281 -4.023438 5.625 -4.347656 5.625 -4.765625 Z M 5.625 -4.765625 "/></g></g></g><g fill="#1893d0" fill-opacity="1"><g transform="translate(49.808003, 12.207407)"><g><path d="M 0.890625 -7.484375 L 2.625 -7.484375 L 2.625 0 L 0.890625 0 Z M 0.890625 -7.484375 "/></g></g></g><g fill="#1893d0" fill-opacity="1"><g transform="translate(53.313303, 12.207407)"><g><path d="M 8.078125 -7.484375 L 4.84375 0 L 3.125 0 L -0.09375 -7.484375 L 1.78125 -7.484375 L 4.046875 -2.140625 L 6.359375 -7.484375 Z M 8.078125 -7.484375 "/></g></g></g><g fill="#1893d0" fill-opacity="1"><g transform="translate(61.285724, 12.207407)"><g><path d="M 5.8125 -1.609375 L 2.34375 -1.609375 L 1.671875 0 L -0.09375 0 L 3.234375 -7.484375 L 4.953125 -7.484375 L 8.296875 0 L 6.484375 0 Z M 5.265625 -2.921875 L 4.078125 -5.78125 L 2.890625 -2.921875 Z M 5.265625 -2.921875 "/></g></g></g><g fill="#1893d0" fill-opacity="1"><g transform="translate(69.471881, 12.207407)"><g><path d="M 5.9375 -3.859375 L 7.53125 -3.859375 L 7.53125 -0.828125 C 7.125 -0.515625 6.648438 -0.273438 6.109375 -0.109375 C 5.578125 0.046875 5.039062 0.125 4.5 0.125 C 3.71875 0.125 3.015625 -0.0351562 2.390625 -0.359375 C 1.773438 -0.691406 1.289062 -1.148438 0.9375 -1.734375 C 0.59375 -2.328125 0.421875 -2.992188 0.421875 -3.734375 C 0.421875 -4.484375 0.59375 -5.148438 0.9375 -5.734375 C 1.289062 -6.316406 1.78125 -6.773438 2.40625 -7.109375 C 3.039062 -7.441406 3.75 -7.609375 4.53125 -7.609375 C 5.1875 -7.609375 5.78125 -7.5 6.3125 -7.28125 C 6.851562 -7.0625 7.300781 -6.738281 7.65625 -6.3125 L 6.546875 -5.296875 C 6.015625 -5.859375 5.367188 -6.140625 4.609375 -6.140625 C 4.140625 -6.140625 3.71875 -6.035156 3.34375 -5.828125 C 2.976562 -5.628906 2.691406 -5.347656 2.484375 -4.984375 C 2.273438 -4.628906 2.171875 -4.210938 2.171875 -3.734375 C 2.171875 -3.273438 2.273438 -2.863281 2.484375 -2.5 C 2.691406 -2.132812 2.976562 -1.847656 3.34375 -1.640625 C 3.707031 -1.441406 4.125 -1.34375 4.59375 -1.34375 C 5.09375 -1.34375 5.539062 -1.453125 5.9375 -1.671875 Z M 5.9375 -3.859375 "/></g></g></g><g fill="#1893d0" fill-opacity="1"><g transform="translate(77.711472, 12.207407)"><g><path d="M 4.203125 0.125 C 3.140625 0.125 2.3125 -0.164062 1.71875 -0.75 C 1.125 -1.34375 0.828125 -2.191406 0.828125 -3.296875 L 0.828125 -7.484375 L 2.546875 -7.484375 L 2.546875 -3.359375 C 2.546875 -2.015625 3.101562 -1.34375 4.21875 -1.34375 C 4.757812 -1.34375 5.171875 -1.503906 5.453125 -1.828125 C 5.742188 -2.148438 5.890625 -2.660156 5.890625 -3.359375 L 5.890625 -7.484375 L 7.59375 -7.484375 L 7.59375 -3.296875 C 7.59375 -2.191406 7.296875 -1.34375 6.703125 -0.75 C 6.109375 -0.164062 5.273438 0.125 4.203125 0.125 Z M 4.203125 0.125 "/></g></g></g><g fill="#1893d0" fill-opacity="1"><g transform="translate(86.132743, 12.207407)"><g><path d="M 7.75 -7.484375 L 7.75 0 L 6.015625 0 L 6.015625 -3.0625 L 2.625 -3.0625 L 2.625 0 L 0.890625 0 L 0.890625 -7.484375 L 2.625 -7.484375 L 2.625 -4.53125 L 6.015625 -4.53125 L 6.015625 -7.484375 Z M 7.75 -7.484375 "/></g></g></g><g fill="#004aad" fill-opacity="1"><g transform="translate(35.348641, 24.204239)"><g><path d="M 5.53125 -9.546875 L 9.390625 0 L 7.046875 0 L 6.34375 -1.90625 L 2.71875 -1.90625 L 2.015625 0 L -0.328125 0 L 3.53125 -9.546875 Z M 5.609375 -3.8125 L 4.546875 -6.59375 L 4.515625 -6.59375 L 3.453125 -3.8125 Z M 5.609375 -3.8125 "/></g></g></g><g fill="#004aad" fill-opacity="1"><g transform="translate(45.320532, 24.204239)"><g><path d="M 2.875 -9.546875 L 2.875 0 L 0.6875 0 L 0.6875 -9.546875 Z M 2.875 -9.546875 "/></g></g></g><g fill="#004aad" fill-opacity="1"><g transform="translate(49.792309, 24.204239)"><g><path d="M 0.6875 -9.546875 L 4.109375 -9.546875 C 5.023438 -9.546875 5.769531 -9.300781 6.34375 -8.8125 C 6.925781 -8.320312 7.21875 -7.617188 7.21875 -6.703125 C 7.21875 -6.003906 7.039062 -5.414062 6.6875 -4.9375 C 6.332031 -4.46875 5.859375 -4.132812 5.265625 -3.9375 L 8.546875 0 L 5.78125 0 L 2.875 -3.765625 L 2.875 0 L 0.6875 0 Z M 2.875 -5.3125 L 3.125 -5.3125 C 3.320312 -5.3125 3.488281 -5.3125 3.625 -5.3125 C 3.769531 -5.320312 3.929688 -5.347656 4.109375 -5.390625 C 4.285156 -5.441406 4.425781 -5.507812 4.53125 -5.59375 C 4.632812 -5.675781 4.722656 -5.796875 4.796875 -5.953125 C 4.878906 -6.117188 4.921875 -6.316406 4.921875 -6.546875 C 4.921875 -6.785156 4.878906 -6.984375 4.796875 -7.140625 C 4.722656 -7.304688 4.632812 -7.429688 4.53125 -7.515625 C 4.425781 -7.597656 4.285156 -7.660156 4.109375 -7.703125 C 3.929688 -7.753906 3.769531 -7.785156 3.625 -7.796875 C 3.488281 -7.804688 3.320312 -7.8125 3.125 -7.8125 L 2.875 -7.8125 Z M 2.875 -5.3125 "/></g></g></g><g fill="#004aad" fill-opacity="1"><g transform="translate(58.97847, 24.204239)"><g><path d="M 8.015625 0 L 6.484375 -5.359375 L 4.953125 0 L 2.546875 0 L -0.171875 -9.546875 L 2.25 -9.546875 L 3.875 -3 L 3.9375 -3 L 5.671875 -9.546875 L 7.3125 -9.546875 L 9.046875 -3 L 9.09375 -3 L 10.734375 -9.546875 L 13.140625 -9.546875 L 10.421875 0 Z M 8.015625 0 "/></g></g></g><g fill="#004aad" fill-opacity="1"><g transform="translate(72.844348, 24.204239)"><g><path d="M 5.53125 -9.546875 L 9.390625 0 L 7.046875 0 L 6.34375 -1.90625 L 2.71875 -1.90625 L 2.015625 0 L -0.328125 0 L 3.53125 -9.546875 Z M 5.609375 -3.8125 L 4.546875 -6.59375 L 4.515625 -6.59375 L 3.453125 -3.8125 Z M 5.609375 -3.8125 "/></g></g></g><g fill="#004aad" fill-opacity="1"><g transform="translate(82.816238, 24.204239)"><g><path d="M -0.34375 -9.546875 L 2.265625 -9.546875 L 4.25 -6.484375 L 6.25 -9.546875 L 8.859375 -9.546875 L 5.34375 -4.28125 L 5.34375 0 L 3.171875 0 L 3.171875 -4.28125 Z M -0.34375 -9.546875 "/></g></g></g><g fill="#004aad" fill-opacity="1"><g transform="translate(92.233495, 24.204239)"><g><path d="M 4.203125 -9.71875 C 4.722656 -9.71875 5.226562 -9.640625 5.71875 -9.484375 C 6.21875 -9.335938 6.585938 -9.191406 6.828125 -9.046875 L 7.171875 -8.8125 L 6.296875 -7.078125 C 6.222656 -7.117188 6.125 -7.175781 6 -7.25 C 5.875 -7.320312 5.640625 -7.421875 5.296875 -7.546875 C 4.960938 -7.671875 4.648438 -7.734375 4.359375 -7.734375 C 3.992188 -7.734375 3.710938 -7.65625 3.515625 -7.5 C 3.316406 -7.34375 3.21875 -7.132812 3.21875 -6.875 C 3.21875 -6.75 3.265625 -6.628906 3.359375 -6.515625 C 3.453125 -6.398438 3.609375 -6.28125 3.828125 -6.15625 C 4.054688 -6.03125 4.253906 -5.925781 4.421875 -5.84375 C 4.597656 -5.769531 4.863281 -5.65625 5.21875 -5.5 C 5.832031 -5.238281 6.359375 -4.882812 6.796875 -4.4375 C 7.234375 -3.988281 7.453125 -3.476562 7.453125 -2.90625 C 7.453125 -2.351562 7.351562 -1.875 7.15625 -1.46875 C 6.957031 -1.0625 6.6875 -0.738281 6.34375 -0.5 C 6 -0.269531 5.617188 -0.101562 5.203125 0 C 4.785156 0.113281 4.332031 0.171875 3.84375 0.171875 C 3.425781 0.171875 3.019531 0.128906 2.625 0.046875 C 2.226562 -0.0351562 1.894531 -0.140625 1.625 -0.265625 C 1.351562 -0.398438 1.109375 -0.523438 0.890625 -0.640625 C 0.671875 -0.765625 0.515625 -0.867188 0.421875 -0.953125 L 0.265625 -1.09375 L 1.359375 -2.90625 C 1.441406 -2.832031 1.566406 -2.734375 1.734375 -2.609375 C 1.898438 -2.492188 2.1875 -2.335938 2.59375 -2.140625 C 3.007812 -1.941406 3.375 -1.84375 3.6875 -1.84375 C 4.601562 -1.84375 5.0625 -2.15625 5.0625 -2.78125 C 5.0625 -2.90625 5.03125 -3.023438 4.96875 -3.140625 C 4.90625 -3.253906 4.789062 -3.363281 4.625 -3.46875 C 4.457031 -3.582031 4.304688 -3.671875 4.171875 -3.734375 C 4.046875 -3.804688 3.835938 -3.910156 3.546875 -4.046875 C 3.265625 -4.179688 3.050781 -4.28125 2.90625 -4.34375 C 2.332031 -4.632812 1.882812 -4.992188 1.5625 -5.421875 C 1.25 -5.847656 1.09375 -6.304688 1.09375 -6.796875 C 1.09375 -7.648438 1.410156 -8.347656 2.046875 -8.890625 C 2.679688 -9.441406 3.398438 -9.71875 4.203125 -9.71875 Z M 4.203125 -9.71875 "/></g></g></g></svg>